<?xml version="1.0" standalone="no"?>
<!DOCTYPE svg PUBLIC "-//W3C//DTD SVG 20010904//EN"
 "http://www.w3.org/TR/2001/REC-SVG-20010904/DTD/svg10.dtd">
<svg version="1.0" xmlns="http://www.w3.org/2000/svg"
 width="512.000000pt" height="512.000000pt" viewBox="0 0 512.000000 512.000000"
 preserveAspectRatio="xMidYMid meet">

<g transform="translate(0.000000,512.000000) scale(0.100000,-0.100000)"
fill="#000000" stroke="none">
<path d="M1715 4679 c-410 -20 -687 -120 -906 -326 -137 -130 -230 -282 -292
-479 -74 -236 -87 -422 -87 -1314 0 -892 13 -1078 87 -1314 63 -198 137 -322
272 -456 138 -138 260 -211 457 -273 236 -74 422 -87 1314 -87 648 0 956 10
1105 35 415 71 706 275 875 613 45 91 92 246 116 377 20 117 33 582 33 1225 1
744 -14 959 -81 1184 -55 186 -140 328 -278 467 -144 146 -279 222 -505 288
-116 34 -240 50 -450 61 -231 11 -1423 11 -1660 -1z m1843 -388 c131 -22 225
-50 321 -97 77 -38 108 -61 180 -132 171 -172 222 -313 242 -676 15 -265 6
-1720 -10 -1824 -22 -131 -50 -225 -97 -322 -38 -77 -62 -110 -128 -176 -66
-66 -99 -90 -176 -128 -227 -111 -339 -120 -1483 -113 -878 5 -889 6 -1057 53
-120 35 -261 134 -345 246 -70 93 -125 222 -161 378 -25 112 -36 554 -31 1295
5 747 7 785 58 951 38 123 85 200 189 305 125 125 200 170 356 210 105 28 142
32 324 39 323 12 1731 5 1818 -9z"/>
<path d="M3595 3926 c-117 -55 -171 -181 -133 -310 16 -55 99 -138 154 -154
171 -50 334 66 334 238 0 182 -191 304 -355 226z"/>
<path d="M2375 3635 c-352 -66 -635 -281 -791 -600 -93 -192 -127 -381 -106
-583 16 -145 42 -236 107 -367 60 -123 106 -190 198 -284 529 -545 1438 -394
1763 293 115 243 136 540 57 791 -113 359 -406 637 -770 731 -126 33 -337 41
-458 19z m414 -400 c207 -70 379 -243 447 -451 26 -80 29 -102 29 -224 0 -122
-3 -144 -29 -224 -69 -210 -242 -383 -453 -452 -79 -26 -101 -29 -223 -29
-122 0 -144 3 -223 29 -211 69 -384 242 -453 452 -26 80 -29 102 -29 224 0
122 3 144 29 223 34 104 86 190 164 270 99 102 197 160 337 198 108 29 291 22
404 -16z"/>
</g>
</svg>
